<svg viewBox="0 0 20000 20000" xmlns="http://www.w3.org/2000/svg" fill-rule="evenodd" clip-rule="evenodd"
    stroke-linecap="round" stroke-linejoin="round" stroke-miterlimit="1.5">
    <g fill="none" stroke-width="2">
        <path
            d="M-87.233 5062l7832.06 16423M2557.82-551.5l-1528.56 23323M-803.88 11357.5l2501.47-2715M365.583-1426l6789.87 22229M8053.29-1094.5l-6423.18 13688M4363.2 12712L3462.622-3274M8111.29 20683.5L2446.3-907.5M12722.2-302L34 12883M15550.7 22114.5L-241.4 5117.5M-110.72 3216.5l2845.55 9619M-574.277 11188L8368.243-280M-502.778 7170l8068.02 13748M1706.91-1056l10059.9 22182M-587.022 18904.5l12590.7-19643M10421.3-755L5666.26 20420M2480.36-766l6947.31 21945"
            stroke="#c1b796" />
        <path d="M12405.4 6862l1584.06 6276M11329.8 13634.5l5666.33-14246" stroke="#000" />
        <path
            d="M9187.93 21172.5l4384.57-14014M14141.5 12892L4175.96-1711M10725 20751L17736.29-879M19492.7 21456.5l-4722.52-24537M10140.8 21984.5l10620.3-19235M12177.8 20703l4166.06-14192M19990.3 6990.5s-5185.31 13306.1-5294.41 13690M8693.42-3404.5s12278.9 23677.5 12315.4 23845M8468.34 21053l12205-18462M13272.5 20518L20750.76 102M21306.5 13393.5l-10253.6-14487M14007.9 21178.5l207.416-22311M-1465.5 12644L13093.9-1471M-1006.29 7134.5l7106.1 13948M18067.5-1340L-1767 19112 18067.5-1340zM4129.81 21277.5l6206.86-22142M14692.8-1931L7234.62 27014M7349.05 7134l5127.6 13096"
            stroke="#c1b796" />
        <path d="M-1242 13271l5230 7173M14572-2005s7999.99 6469.16 8124 6697" stroke="#000" />
    </g>
</svg>